<?xml version="1.0" standalone="no"?>
<!DOCTYPE svg PUBLIC "-//W3C//DTD SVG 20010904//EN"
 "http://www.w3.org/TR/2001/REC-SVG-20010904/DTD/svg10.dtd">
<svg version="1.0" xmlns="http://www.w3.org/2000/svg"
 width="842.000000pt" height="842.000000pt" viewBox="0 0 842.000000 842.000000"
 preserveAspectRatio="xMidYMid meet">

<g transform="translate(0.000000,842.000000) scale(0.100000,-0.100000)"
fill="#000000" stroke="none">
<path d="M6037 8374 c-9 -16 -217 -563 -217 -573 0 -18 361 -321 383 -321 12
-1 126 -7 252 -14 127 -8 231 -13 231 -12 3 2 187 483 205 533 l18 52 -97 84
c-180 156 -257 218 -277 226 -11 5 -87 11 -170 15 -82 3 -189 9 -236 12 -47 4
-89 3 -92 -2z"/>
<path d="M744 7015 c-78 -18 -146 -35 -152 -39 -5 -3 -56 -62 -112 -131 l-102
-126 101 -172 c56 -95 105 -178 110 -185 7 -11 40 -7 176 22 92 20 169 36 170
36 6 0 215 259 215 265 0 3 -48 86 -106 185 -96 163 -109 180 -133 179 -14 -1
-90 -16 -167 -34z"/>
<path d="M4030 6577 c-71 -14 -90 -22 -90 -40 0 -7 -20 -23 -44 -36 -68 -35
-173 -126 -198 -171 -22 -37 -26 -40 -68 -40 -32 0 -68 11 -120 35 -40 20 -83
35 -94 33 -18 -3 -21 -10 -21 -58 0 -44 9 -73 42 -142 23 -48 59 -113 81 -145
37 -56 38 -59 20 -75 -12 -12 -18 -33 -18 -62 0 -43 -1 -45 -32 -48 l-33 -3 0
-80 0 -80 33 -3 c30 -3 32 -5 32 -45 0 -80 6 -87 66 -87 50 0 54 -2 54 -23 0
-41 38 -176 65 -230 33 -65 65 -101 79 -87 7 7 1 19 -17 37 -36 39 -74 127
-94 218 -16 72 -16 85 1 218 10 78 19 143 20 145 2 1 25 -7 51 -19 41 -18 60
-20 129 -15 243 19 330 18 468 -3 179 -28 223 -27 283 4 27 13 50 23 51 22 1
-1 9 -58 17 -127 22 -190 0 -304 -79 -421 -35 -53 -41 -69 -24 -69 6 0 28 27
49 60 36 55 68 151 86 253 l6 37 64 0 64 0 7 60 c5 49 10 60 25 60 20 0 33 57
27 125 -2 33 -7 41 -25 43 -19 3 -23 10 -23 37 0 55 -16 85 -45 85 -22 0 -25
4 -25 39 0 56 -18 140 -33 155 -7 7 -19 33 -26 57 -7 24 -20 62 -29 84 -23 54
-154 183 -223 220 -33 17 -56 35 -55 44 3 37 -272 63 -404 38z m316 -121 c73
-10 102 -19 142 -45 57 -36 92 -71 57 -57 -170 70 -346 68 -629 -10 -70 -19
-131 -32 -135 -29 -8 9 72 80 126 111 29 17 62 26 109 30 37 2 70 7 73 9 9 10
168 4 257 -9z m354 -331 c10 -12 10 -18 0 -30 -16 -19 -40 -3 -40 26 0 23 23
25 40 4z m-1190 -365 c0 -5 -11 -10 -25 -10 -14 0 -25 5 -25 10 0 6 11 10 25
10 14 0 25 -4 25 -10z m1393 -7 c-7 -2 -19 -2 -25 0 -7 3 -2 5 12 5 14 0 19
-2 13 -5z"/>
<path d="M7801 6150 c-29 -5 -58 -14 -63 -22 -13 -19 -1 -95 22 -143 11 -22
35 -51 55 -64 19 -13 32 -27 29 -32 -11 -18 -108 -39 -144 -31 -63 14 -77 6
-76 -40 2 -50 26 -72 104 -94 59 -17 143 -15 196 5 28 11 28 12 10 30 -10 10
-24 16 -31 14 -8 -3 -10 11 -7 51 5 49 3 56 -13 56 -10 0 7 13 37 28 44 21 57
34 67 62 15 43 16 130 3 164 -9 24 -14 26 -72 25 -35 -1 -87 -5 -117 -9z"/>
<path d="M7540 6125 c-8 -2 -31 -6 -52 -10 -45 -7 -51 -21 -37 -88 11 -52 30
-84 87 -145 26 -28 34 -32 52 -22 11 6 20 8 20 5 0 -3 13 1 29 11 57 34 89
154 61 228 -9 25 -13 26 -77 25 -38 -1 -75 -3 -83 -4z"/>
<path d="M3820 5590 c0 -22 11 -43 38 -72 33 -35 45 -41 88 -45 74 -6 131 36
149 110 7 25 5 27 -24 27 -21 0 -31 -5 -31 -15 0 -9 -11 -27 -25 -40 -46 -46
-125 -24 -141 40 -4 18 -13 25 -30 25 -20 0 -24 -5 -24 -30z"/>
<path d="M4483 5583 c-10 -21 -31 -44 -47 -52 -25 -12 -33 -11 -63 3 -21 10
-38 27 -45 46 -8 24 -16 30 -38 30 -27 0 -28 -2 -20 -29 20 -72 67 -111 135
-111 69 0 125 47 140 118 6 29 5 32 -18 32 -19 0 -30 -9 -44 -37z"/>
<path d="M4170 5370 c0 -5 7 -10 15 -10 8 0 15 5 15 10 0 6 -7 10 -15 10 -8 0
-15 -4 -15 -10z"/>
<path d="M3945 5130 l-40 -5 33 -18 c45 -25 201 -40 333 -34 82 4 116 10 152
28 26 13 47 26 47 30 0 8 -462 7 -525 -1z"/>
<path d="M3902 4980 c-36 -8 -72 -36 -72 -55 0 -7 -39 -16 -107 -24 -200 -23
-430 -80 -816 -202 -120 -38 -230 -69 -245 -69 -56 0 -674 -105 -872 -148 -94
-21 -161 -30 -220 -29 -195 1 -378 -100 -452 -250 -91 -186 -12 -433 167 -515
70 -32 219 -32 320 -1 83 26 230 52 528 93 217 30 220 30 300 13 75 -15 91
-15 197 -1 63 9 119 13 124 10 17 -10 95 -189 118 -272 l23 -85 8 60 c4 33 6
99 4 147 -2 48 -2 99 1 113 4 26 5 26 78 19 42 -4 74 -3 74 2 0 8 -48 50 -77
68 -7 4 -67 14 -133 22 -145 18 -149 19 -254 89 -48 32 -93 55 -109 55 -45 0
-77 93 -77 223 l0 78 63 39 c85 55 110 58 226 26 118 -31 155 -32 297 -5 166
31 303 15 569 -66 176 -54 287 -110 366 -184 68 -65 76 -100 36 -147 -20 -23
-32 -28 -74 -28 -45 -1 -59 5 -119 46 -69 46 -201 114 -209 106 -2 -2 9 -24
26 -48 47 -70 88 -155 104 -216 8 -32 17 -59 20 -62 5 -6 984 -20 1438 -21
l247 -1 0 -57 1 -58 14 33 c8 17 20 32 28 32 8 0 30 -19 50 -42 62 -76 128
-137 236 -220 58 -45 108 -84 111 -86 3 -2 -6 -12 -20 -21 -35 -23 -100 -82
-100 -91 0 -4 19 -4 43 1 61 12 337 11 442 -2 166 -19 219 -66 213 -187 -6
-97 -18 -104 -175 -113 -142 -8 -176 -18 -297 -84 -47 -26 -96 -45 -114 -45
-23 0 -37 -9 -61 -39 -17 -21 -31 -46 -31 -54 0 -23 65 -75 107 -86 126 -32
300 -20 410 29 43 19 77 22 303 30 276 10 372 26 455 75 126 73 182 226 140
382 -23 85 -99 199 -155 233 -22 14 -58 38 -78 54 -20 16 -64 41 -97 56 -36
16 -103 64 -165 118 -58 50 -233 191 -389 314 -157 123 -321 256 -365 297
-129 118 -486 346 -750 478 -211 106 -411 177 -561 198 -37 6 -56 15 -75 36
-28 33 -119 57 -132 36 -11 -18 -410 -17 -416 1 -4 13 -20 14 -70 2z"/>
<path d="M5397 2733 c-4 -3 -7 -86 -7 -184 l0 -178 33 11 c17 6 33 12 35 14 2
1 -9 75 -24 164 -24 139 -26 163 -13 171 12 7 12 9 -2 9 -9 0 -19 -3 -22 -7z"/>
<path d="M2865 2323 c-10 -38 -24 -82 -31 -100 -12 -30 -11 -33 8 -39 18 -5
15 -10 -26 -36 -48 -32 -55 -50 -31 -81 7 -11 12 -24 10 -30 -3 -7 -6 -38 -8
-69 -3 -40 -1 -55 7 -51 6 4 5 -1 -3 -10 -17 -21 -8 -181 11 -205 7 -9 8 -13
2 -9 -7 4 -14 -3 -16 -18 -3 -13 -2 -22 2 -20 4 2 7 -2 7 -10 0 -8 -3 -13 -6
-12 -3 2 -19 -11 -36 -27 -16 -16 -25 -26 -18 -23 6 4 14 3 17 -2 4 -5 -5 -8
-19 -6 -14 1 -25 -1 -25 -6 0 -5 -7 -5 -17 -2 -9 4 -14 2 -10 -3 6 -10 -49 -9
-175 2 -56 5 -69 3 -74 -9 -3 -10 -12 -13 -22 -10 -9 4 -14 3 -10 -2 4 -4 0
-14 -10 -22 -11 -9 -11 -12 -2 -7 12 6 13 4 3 -7 -7 -7 -13 -23 -13 -36 0 -13
-5 -23 -11 -23 -5 0 -7 5 -3 12 5 7 3 8 -6 3 -28 -17 68 -72 290 -164 l126
-52 99 41 c132 55 133 55 156 35 19 -18 21 -18 57 -1 91 44 337 128 612 210
244 72 331 93 415 101 39 3 93 8 120 10 28 3 82 7 120 11 39 3 97 9 130 13 33
5 63 7 68 4 4 -2 7 0 7 4 0 5 10 9 23 10 12 0 37 3 55 7 94 18 206 28 282 26
124 -4 139 -5 135 -9 -3 -2 1 -11 8 -20 11 -14 10 -15 -8 -1 -19 14 -19 14 -6
-2 7 -10 20 -18 27 -18 8 0 14 -4 14 -9 0 -6 9 -8 20 -6 11 2 22 0 25 -6 4 -5
14 -5 27 2 15 8 19 8 14 0 -9 -14 0 -14 26 0 15 8 19 8 14 0 -11 -18 9 -13 36
9 20 15 28 16 38 7 10 -9 11 -9 6 1 -7 11 6 17 29 12 5 -1 7 2 3 5 -4 4 4 16
18 27 13 11 34 38 45 59 18 36 19 44 7 102 l-13 62 -70 1 c-38 1 -290 3 -560
5 -269 2 -546 6 -615 9 -69 3 188 7 569 8 533 2 692 5 683 14 -9 9 -315 11
-1268 9 l-1257 -3 6 31 c8 40 22 381 15 381 -3 0 -13 -30 -23 -67z"/>
<path d="M5575 1469 c-60 -28 -200 -95 -310 -149 -110 -54 -337 -161 -505
-238 -470 -216 -517 -239 -517 -256 0 -12 4 -13 14 -5 9 9 13 8 13 0 0 -7 5
-9 10 -6 6 3 10 2 10 -4 0 -5 11 -8 25 -6 14 1 28 -2 32 -8 4 -6 1 -7 -7 -2
-9 5 -11 4 -6 -4 4 -6 12 -9 17 -6 5 4 14 3 21 -1 12 -7 37 -11 103 -17 17 -2
35 -5 40 -8 6 -3 17 -5 25 -4 8 1 25 -2 38 -7 17 -6 21 -5 16 4 -4 6 5 3 19
-8 14 -10 28 -24 31 -30 6 -15 -68 -95 -118 -128 -27 -18 -33 -26 -20 -26 46
1 112 45 192 128 45 48 87 87 92 87 4 0 12 4 17 9 5 5 3 6 -4 2 -7 -4 -13 -4
-13 -1 0 25 59 41 77 21 4 -5 3 -7 -3 -3 -6 3 -11 0 -11 -8 0 -13 3 -13 16 -2
18 16 64 15 83 -1 9 -7 19 -7 28 -2 70 44 24 -72 -82 -208 -27 -35 -48 -65
-46 -67 2 -1 84 -35 184 -74 221 -86 209 -87 404 47 399 277 541 432 587 646
42 195 -25 254 -274 243 l-123 -5 21 29 c11 17 19 35 16 42 -3 7 6 23 19 36
26 25 31 41 12 41 -7 0 -62 -23 -123 -51z m-521 -400 c-15 -17 -82 -44 -133
-54 -20 -4 -21 -2 -9 12 11 14 11 16 -1 8 -11 -6 -13 -4 -8 9 4 10 7 21 7 25
0 8 55 27 95 34 11 2 30 -1 43 -7 21 -9 21 -11 6 -27z"/>
<path d="M2227 1276 c-26 -7 -50 -16 -54 -19 -3 -4 26 -73 65 -154 99 -206
182 -412 293 -727 27 -77 51 -141 53 -143 2 -2 119 48 260 111 l257 115 16
-35 c9 -19 20 -34 24 -34 29 0 -210 560 -305 714 -39 64 -45 63 -21 -4 8 -23
12 -46 9 -51 -10 -17 -106 -10 -149 11 -22 11 -65 42 -95 68 -85 76 -169 131
-224 147 -58 18 -66 18 -129 1z"/>
<path d="M2086 1020 c9 -33 114 -326 152 -421 41 -102 124 -280 129 -276 9 9
-192 537 -238 625 -27 53 -47 86 -43 72z"/>
<path d="M4825 801 c-3 -5 -2 -12 3 -15 5 -3 9 1 9 9 0 17 -3 19 -12 6z"/>
</g>
</svg>
